<?xml version="1.0" encoding="utf-8"?>
<!-- Generator: Adobe Illustrator 25.0.1, SVG Export Plug-In . SVG Version: 6.00 Build 0)  -->
<svg version="1.1" id="Layer_1" xmlns="http://www.w3.org/2000/svg" xmlns:xlink="http://www.w3.org/1999/xlink" x="0px" y="0px"
	 viewBox="0 0 1920 1080" style="enable-background:new 0 0 1920 1080;" xml:space="preserve">
<style type="text/css">
	.st0{fill:none;stroke:#000000;stroke-width:6;stroke-miterlimit:10;}
</style>
<g>
	<path class="st0" d="M1104.7,1118l541-471.8c19.2-16.7,48-15.7,66,2.3l127.9,127.9c18.9,18.9,49.5,18.9,68.4,0L2529.3,155"/>
	<path class="st0" d="M1104.7,1205.4l541-471.8c19.2-16.7,48-15.7,66,2.3l127.9,127.9c18.9,18.9,49.5,18.9,68.4,0l621.4-621.4"/>
	<path class="st0" d="M1104.7,1292.7l541-471.8c19.2-16.7,48-15.7,66,2.3L1839.6,951c18.9,18.9,49.5,18.9,68.4,0l621.4-621.4"/>
	<path class="st0" d="M1104.7,1380l541-471.8c19.2-16.7,48-15.7,66,2.3l127.9,127.9c18.9,18.9,49.5,18.9,68.4,0L2529.3,417"/>
</g>
</svg>
